<mxfile host="app.diagrams.net" modified="2024-02-16T18:51:28.695Z" agent="Mozilla/5.0 (Windows NT 10.0; Win64; x64) AppleWebKit/537.36 (KHTML, like Gecko) Chrome/121.0.0.0 Safari/537.36 Edg/121.0.0.0" etag="Fq5mWmNNn7DL3INcZWzZ" version="23.1.5" type="device">
  <diagram name="Page-1" id="bZBsJEEv_NVjQFhtzkVJ">
    <mxGraphModel dx="2876" dy="1111" grid="1" gridSize="10" guides="1" tooltips="1" connect="1" arrows="1" fold="1" page="1" pageScale="1" pageWidth="850" pageHeight="1100" math="1" shadow="0">
      <root>
        <mxCell id="0" />
        <mxCell id="1" parent="0" />
        <mxCell id="rUpCsNfPbhUcNgEBi1bg-75" value="" style="rounded=0;whiteSpace=wrap;html=1;strokeWidth=2;" parent="1" vertex="1">
          <mxGeometry x="-190" y="276" width="330" height="122" as="geometry" />
        </mxCell>
        <UserObject label="$$\textbf{forall}~~&amp;nbsp; W^p \in \{\mathcal{P}^p \mid p \in [d]\}&lt;br&gt;&amp;nbsp; ~~\textbf{do} $$" placeholders="1" name="Variable" id="rUpCsNfPbhUcNgEBi1bg-72">
          <mxCell style="text;html=1;strokeColor=none;fillColor=none;align=center;verticalAlign=middle;whiteSpace=wrap;overflow=hidden;rotation=0;" parent="1" vertex="1">
            <mxGeometry x="-180" y="305" width="209" height="30" as="geometry" />
          </mxCell>
        </UserObject>
        <mxCell id="rUpCsNfPbhUcNgEBi1bg-51" value="" style="rounded=1;whiteSpace=wrap;html=1;dashed=1;fillColor=#CCCCCC;fillStyle=auto;" parent="1" vertex="1">
          <mxGeometry x="-490" y="220" width="50" height="220" as="geometry" />
        </mxCell>
        <mxCell id="rUpCsNfPbhUcNgEBi1bg-50" value="" style="rounded=1;whiteSpace=wrap;html=1;dashed=1;fillColor=#CCCCCC;fillStyle=auto;" parent="1" vertex="1">
          <mxGeometry x="-404" y="220" width="50" height="220" as="geometry" />
        </mxCell>
        <mxCell id="rUpCsNfPbhUcNgEBi1bg-49" value="" style="rounded=1;whiteSpace=wrap;html=1;dashed=1;fillColor=#CCCCCC;fillStyle=auto;" parent="1" vertex="1">
          <mxGeometry x="-280" y="220" width="50" height="220" as="geometry" />
        </mxCell>
        <mxCell id="rUpCsNfPbhUcNgEBi1bg-1" value="" style="endArrow=none;html=1;rounded=0;" parent="1" edge="1">
          <mxGeometry width="50" height="50" relative="1" as="geometry">
            <mxPoint x="-500" y="250" as="sourcePoint" />
            <mxPoint x="-210" y="250" as="targetPoint" />
          </mxGeometry>
        </mxCell>
        <mxCell id="rUpCsNfPbhUcNgEBi1bg-2" value="" style="endArrow=none;html=1;rounded=0;" parent="1" edge="1">
          <mxGeometry width="50" height="50" relative="1" as="geometry">
            <mxPoint x="-240" y="289.31" as="sourcePoint" />
            <mxPoint x="-210" y="289.31" as="targetPoint" />
          </mxGeometry>
        </mxCell>
        <mxCell id="rUpCsNfPbhUcNgEBi1bg-3" value="" style="endArrow=none;html=1;rounded=0;" parent="1" source="rUpCsNfPbhUcNgEBi1bg-67" edge="1">
          <mxGeometry width="50" height="50" relative="1" as="geometry">
            <mxPoint x="-430" y="330" as="sourcePoint" />
            <mxPoint x="-210" y="330" as="targetPoint" />
            <Array as="points">
              <mxPoint x="-210" y="330" />
            </Array>
          </mxGeometry>
        </mxCell>
        <mxCell id="rUpCsNfPbhUcNgEBi1bg-4" value="" style="endArrow=none;html=1;rounded=0;" parent="1" edge="1">
          <mxGeometry width="50" height="50" relative="1" as="geometry">
            <mxPoint x="-240" y="409.66" as="sourcePoint" />
            <mxPoint x="-210" y="409.66" as="targetPoint" />
          </mxGeometry>
        </mxCell>
        <mxCell id="rUpCsNfPbhUcNgEBi1bg-5" value="" style="endArrow=none;dashed=1;html=1;dashPattern=1 3;strokeWidth=3;rounded=0;" parent="1" edge="1">
          <mxGeometry width="50" height="50" relative="1" as="geometry">
            <mxPoint x="-465.5" y="382" as="sourcePoint" />
            <mxPoint x="-465.5" y="352" as="targetPoint" />
          </mxGeometry>
        </mxCell>
        <UserObject label="$$\ket{0_1&lt;br&gt;}$$" placeholders="1" name="Variable" id="rUpCsNfPbhUcNgEBi1bg-8">
          <mxCell style="text;html=1;strokeColor=none;fillColor=none;align=center;verticalAlign=middle;whiteSpace=wrap;overflow=hidden;" parent="1" vertex="1">
            <mxGeometry x="-540" y="230" width="40" height="40" as="geometry" />
          </mxCell>
        </UserObject>
        <UserObject label="$$\ket{0_2}$$" placeholders="1" name="Variable" id="rUpCsNfPbhUcNgEBi1bg-9">
          <mxCell style="text;html=1;strokeColor=none;fillColor=none;align=center;verticalAlign=middle;whiteSpace=wrap;overflow=hidden;" parent="1" vertex="1">
            <mxGeometry x="-540" y="270" width="40" height="40" as="geometry" />
          </mxCell>
        </UserObject>
        <UserObject label="$$\ket{0_3}$$" placeholders="1" name="Variable" id="rUpCsNfPbhUcNgEBi1bg-10">
          <mxCell style="text;html=1;strokeColor=none;fillColor=none;align=center;verticalAlign=middle;whiteSpace=wrap;overflow=hidden;" parent="1" vertex="1">
            <mxGeometry x="-540" y="310" width="40" height="40" as="geometry" />
          </mxCell>
        </UserObject>
        <UserObject label="$$\ket{0_{n}}$$" placeholders="1" name="Variable" id="rUpCsNfPbhUcNgEBi1bg-11">
          <mxCell style="text;html=1;strokeColor=none;fillColor=none;align=center;verticalAlign=middle;whiteSpace=wrap;overflow=hidden;" parent="1" vertex="1">
            <mxGeometry x="-540" y="390" width="40" height="40" as="geometry" />
          </mxCell>
        </UserObject>
        <mxCell id="rUpCsNfPbhUcNgEBi1bg-12" value="" style="shape=curlyBracket;whiteSpace=wrap;html=1;rounded=1;labelPosition=left;verticalLabelPosition=middle;align=right;verticalAlign=middle;" parent="1" vertex="1">
          <mxGeometry x="-570" y="240" width="20" height="180" as="geometry" />
        </mxCell>
        <UserObject label="$$n~\text{qubits&lt;br&gt;}$$ 1st level of parallelism" placeholders="1" name="Variable" id="rUpCsNfPbhUcNgEBi1bg-15">
          <mxCell style="text;html=1;strokeColor=none;fillColor=none;align=center;verticalAlign=middle;whiteSpace=wrap;overflow=hidden;rotation=-90;" parent="1" vertex="1">
            <mxGeometry x="-750" y="290" width="270" height="70" as="geometry" />
          </mxCell>
        </UserObject>
        <mxCell id="rUpCsNfPbhUcNgEBi1bg-16" value="$$C^{0}$$" style="rounded=0;whiteSpace=wrap;html=1;fillColor=#d5e8d4;strokeColor=#82b366;" parent="1" vertex="1">
          <mxGeometry x="-480" y="235" width="30" height="30" as="geometry" />
        </mxCell>
        <mxCell id="rUpCsNfPbhUcNgEBi1bg-21" value="" style="endArrow=none;html=1;rounded=0;" parent="1" source="rUpCsNfPbhUcNgEBi1bg-36" edge="1">
          <mxGeometry width="50" height="50" relative="1" as="geometry">
            <mxPoint x="-500" y="330" as="sourcePoint" />
            <mxPoint x="-450" y="330" as="targetPoint" />
          </mxGeometry>
        </mxCell>
        <mxCell id="rUpCsNfPbhUcNgEBi1bg-23" value="" style="endArrow=none;html=1;rounded=0;" parent="1" edge="1">
          <mxGeometry width="50" height="50" relative="1" as="geometry">
            <mxPoint x="-500" y="410" as="sourcePoint" />
            <mxPoint x="-480" y="410" as="targetPoint" />
          </mxGeometry>
        </mxCell>
        <mxCell id="rUpCsNfPbhUcNgEBi1bg-24" value="" style="endArrow=classic;html=1;rounded=0;" parent="1" edge="1">
          <mxGeometry width="50" height="50" relative="1" as="geometry">
            <mxPoint x="-490" y="170" as="sourcePoint" />
            <mxPoint x="-220" y="170" as="targetPoint" />
          </mxGeometry>
        </mxCell>
        <mxCell id="rUpCsNfPbhUcNgEBi1bg-26" value="$$C^{1}$$" style="rounded=0;whiteSpace=wrap;html=1;fillColor=#d5e8d4;strokeColor=#82b366;" parent="1" vertex="1">
          <mxGeometry x="-394" y="235" width="30" height="30" as="geometry" />
        </mxCell>
        <mxCell id="rUpCsNfPbhUcNgEBi1bg-30" value="$$C^{d}$$" style="rounded=0;whiteSpace=wrap;html=1;fillColor=#d5e8d4;strokeColor=#82b366;" parent="1" vertex="1">
          <mxGeometry x="-270" y="235" width="30" height="30" as="geometry" />
        </mxCell>
        <mxCell id="rUpCsNfPbhUcNgEBi1bg-34" value="$$C^{0}$$" style="rounded=0;whiteSpace=wrap;html=1;fillColor=#d5e8d4;strokeColor=#82b366;" parent="1" vertex="1">
          <mxGeometry x="-480" y="395" width="30" height="30" as="geometry" />
        </mxCell>
        <mxCell id="rUpCsNfPbhUcNgEBi1bg-37" value="" style="endArrow=none;html=1;rounded=0;" parent="1" target="rUpCsNfPbhUcNgEBi1bg-36" edge="1">
          <mxGeometry width="50" height="50" relative="1" as="geometry">
            <mxPoint x="-500" y="330" as="sourcePoint" />
            <mxPoint x="-450" y="330" as="targetPoint" />
          </mxGeometry>
        </mxCell>
        <mxCell id="rUpCsNfPbhUcNgEBi1bg-36" value="$$C^{0}$$" style="rounded=0;whiteSpace=wrap;html=1;fillColor=#d5e8d4;strokeColor=#82b366;" parent="1" vertex="1">
          <mxGeometry x="-480" y="315" width="30" height="30" as="geometry" />
        </mxCell>
        <mxCell id="rUpCsNfPbhUcNgEBi1bg-38" value="" style="endArrow=none;dashed=1;html=1;dashPattern=1 3;strokeWidth=3;rounded=0;" parent="1" edge="1">
          <mxGeometry width="50" height="50" relative="1" as="geometry">
            <mxPoint x="-379.5" y="380" as="sourcePoint" />
            <mxPoint x="-379.5" y="350" as="targetPoint" />
          </mxGeometry>
        </mxCell>
        <mxCell id="rUpCsNfPbhUcNgEBi1bg-40" value="" style="endArrow=none;dashed=1;html=1;dashPattern=1 3;strokeWidth=3;rounded=0;" parent="1" edge="1">
          <mxGeometry width="50" height="50" relative="1" as="geometry">
            <mxPoint x="-255.24" y="380" as="sourcePoint" />
            <mxPoint x="-255.24" y="350" as="targetPoint" />
          </mxGeometry>
        </mxCell>
        <mxCell id="rUpCsNfPbhUcNgEBi1bg-41" value="" style="shape=curlyBracket;whiteSpace=wrap;html=1;rounded=1;labelPosition=left;verticalLabelPosition=middle;align=right;verticalAlign=middle;rotation=0;" parent="1" vertex="1">
          <mxGeometry x="-596" y="575.75" width="21" height="160" as="geometry" />
        </mxCell>
        <mxCell id="rUpCsNfPbhUcNgEBi1bg-45" value="Time" style="text;html=1;align=center;verticalAlign=middle;resizable=0;points=[];autosize=1;strokeColor=none;fillColor=none;fontSize=14;" parent="1" vertex="1">
          <mxGeometry x="-500" y="140" width="50" height="30" as="geometry" />
        </mxCell>
        <UserObject label="$$\mathcal{P}^{1}$$" placeholders="1" name="Variable" id="rUpCsNfPbhUcNgEBi1bg-52">
          <mxCell style="text;html=1;strokeColor=none;fillColor=none;align=center;verticalAlign=middle;whiteSpace=wrap;overflow=hidden;" parent="1" vertex="1">
            <mxGeometry x="-480" y="180" width="40" height="40" as="geometry" />
          </mxCell>
        </UserObject>
        <mxCell id="rUpCsNfPbhUcNgEBi1bg-57" value="" style="endArrow=none;html=1;rounded=0;" parent="1" target="rUpCsNfPbhUcNgEBi1bg-56" edge="1">
          <mxGeometry width="50" height="50" relative="1" as="geometry">
            <mxPoint x="-450" y="410" as="sourcePoint" />
            <mxPoint x="-210" y="410" as="targetPoint" />
          </mxGeometry>
        </mxCell>
        <mxCell id="rUpCsNfPbhUcNgEBi1bg-56" value="$$C^{1}$$" style="rounded=0;whiteSpace=wrap;html=1;fillColor=#d5e8d4;strokeColor=#82b366;" parent="1" vertex="1">
          <mxGeometry x="-394" y="395" width="30" height="30" as="geometry" />
        </mxCell>
        <mxCell id="rUpCsNfPbhUcNgEBi1bg-59" value="" style="endArrow=none;html=1;rounded=0;" parent="1" source="rUpCsNfPbhUcNgEBi1bg-56" edge="1">
          <mxGeometry width="50" height="50" relative="1" as="geometry">
            <mxPoint x="-364" y="410" as="sourcePoint" />
            <mxPoint x="-270" y="410" as="targetPoint" />
          </mxGeometry>
        </mxCell>
        <mxCell id="rUpCsNfPbhUcNgEBi1bg-64" value="" style="endArrow=none;html=1;rounded=0;" parent="1" target="rUpCsNfPbhUcNgEBi1bg-63" edge="1">
          <mxGeometry width="50" height="50" relative="1" as="geometry">
            <mxPoint x="-500" y="290" as="sourcePoint" />
            <mxPoint x="-210" y="290" as="targetPoint" />
          </mxGeometry>
        </mxCell>
        <mxCell id="rUpCsNfPbhUcNgEBi1bg-63" value="$$I^{0}$$" style="rounded=0;whiteSpace=wrap;html=1;fillColor=#fff2cc;strokeColor=#d6b656;" parent="1" vertex="1">
          <mxGeometry x="-480" y="275" width="30" height="30" as="geometry" />
        </mxCell>
        <mxCell id="rUpCsNfPbhUcNgEBi1bg-66" value="" style="endArrow=none;html=1;rounded=0;" parent="1" target="rUpCsNfPbhUcNgEBi1bg-65" edge="1">
          <mxGeometry width="50" height="50" relative="1" as="geometry">
            <mxPoint x="-450" y="330" as="sourcePoint" />
            <mxPoint x="-210" y="330" as="targetPoint" />
          </mxGeometry>
        </mxCell>
        <mxCell id="rUpCsNfPbhUcNgEBi1bg-65" value="$$I^{1}$$" style="rounded=0;whiteSpace=wrap;html=1;fillColor=#fff2cc;strokeColor=#d6b656;" parent="1" vertex="1">
          <mxGeometry x="-394" y="315" width="30" height="30" as="geometry" />
        </mxCell>
        <mxCell id="rUpCsNfPbhUcNgEBi1bg-68" value="" style="endArrow=none;html=1;rounded=0;" parent="1" source="rUpCsNfPbhUcNgEBi1bg-65" target="rUpCsNfPbhUcNgEBi1bg-67" edge="1">
          <mxGeometry width="50" height="50" relative="1" as="geometry">
            <mxPoint x="-364" y="330" as="sourcePoint" />
            <mxPoint x="-210" y="330" as="targetPoint" />
          </mxGeometry>
        </mxCell>
        <mxCell id="rUpCsNfPbhUcNgEBi1bg-67" value="$$I^{d}$$" style="rounded=0;whiteSpace=wrap;html=1;fillColor=#fff2cc;strokeColor=#d6b656;" parent="1" vertex="1">
          <mxGeometry x="-270" y="315" width="30" height="30" as="geometry" />
        </mxCell>
        <mxCell id="rUpCsNfPbhUcNgEBi1bg-70" value="" style="endArrow=none;html=1;rounded=0;" parent="1" source="rUpCsNfPbhUcNgEBi1bg-63" target="rUpCsNfPbhUcNgEBi1bg-69" edge="1">
          <mxGeometry width="50" height="50" relative="1" as="geometry">
            <mxPoint x="-450" y="290" as="sourcePoint" />
            <mxPoint x="-210" y="290" as="targetPoint" />
          </mxGeometry>
        </mxCell>
        <mxCell id="rUpCsNfPbhUcNgEBi1bg-69" value="$$I^{d}$$" style="rounded=0;whiteSpace=wrap;html=1;fillColor=#fff2cc;strokeColor=#d6b656;" parent="1" vertex="1">
          <mxGeometry x="-270" y="275" width="30" height="30" as="geometry" />
        </mxCell>
        <mxCell id="rUpCsNfPbhUcNgEBi1bg-27" value="$$C^{1}$$" style="rounded=0;whiteSpace=wrap;html=1;fillColor=#d5e8d4;strokeColor=#82b366;" parent="1" vertex="1">
          <mxGeometry x="-394" y="275" width="30" height="30" as="geometry" />
        </mxCell>
        <mxCell id="rUpCsNfPbhUcNgEBi1bg-71" value="$$I^{d}$$" style="rounded=0;whiteSpace=wrap;html=1;fillColor=#fff2cc;strokeColor=#d6b656;" parent="1" vertex="1">
          <mxGeometry x="-270" y="395" width="30" height="30" as="geometry" />
        </mxCell>
        <UserObject label="$$\textbf{foreach}~~ C^p \in W^p ~~\textbf{do in parallel} $$" placeholders="1" name="Variable" id="rUpCsNfPbhUcNgEBi1bg-73">
          <mxCell style="text;html=1;strokeColor=none;fillColor=none;align=center;verticalAlign=middle;whiteSpace=wrap;overflow=hidden;rotation=0;" parent="1" vertex="1">
            <mxGeometry x="-150" y="333" width="230" height="37" as="geometry" />
          </mxCell>
        </UserObject>
        <UserObject label="$$\textcolor{purple}{\textbf{updateTableau}}(C^p,\ket{x_n}&lt;br&gt;) $$" placeholders="1" name="Variable" id="rUpCsNfPbhUcNgEBi1bg-74">
          <mxCell style="text;html=1;strokeColor=none;fillColor=none;align=center;verticalAlign=middle;whiteSpace=wrap;overflow=hidden;rotation=0;" parent="1" vertex="1">
            <mxGeometry x="-138.5" y="359" width="200" height="31" as="geometry" />
          </mxCell>
        </UserObject>
        <mxCell id="rUpCsNfPbhUcNgEBi1bg-76" value="" style="endArrow=none;dashed=1;html=1;dashPattern=1 3;strokeWidth=3;rounded=0;" parent="1" edge="1">
          <mxGeometry width="50" height="50" relative="1" as="geometry">
            <mxPoint x="-330" y="370" as="sourcePoint" />
            <mxPoint x="-300" y="370" as="targetPoint" />
          </mxGeometry>
        </mxCell>
        <mxCell id="rUpCsNfPbhUcNgEBi1bg-77" value="" style="endArrow=none;dashed=1;html=1;dashPattern=1 3;strokeWidth=3;rounded=0;" parent="1" edge="1">
          <mxGeometry width="50" height="50" relative="1" as="geometry">
            <mxPoint x="-330" y="310" as="sourcePoint" />
            <mxPoint x="-300" y="310" as="targetPoint" />
          </mxGeometry>
        </mxCell>
        <mxCell id="rUpCsNfPbhUcNgEBi1bg-78" value="" style="endArrow=none;dashed=1;html=1;dashPattern=1 3;strokeWidth=3;rounded=0;" parent="1" edge="1">
          <mxGeometry width="50" height="50" relative="1" as="geometry">
            <mxPoint x="-330" y="267.26" as="sourcePoint" />
            <mxPoint x="-300" y="267.26" as="targetPoint" />
          </mxGeometry>
        </mxCell>
        <UserObject label="$$\mathcal{P}^{2}$$" placeholders="1" name="Variable" id="3ZK03s1uTfJQS2Cd98UN-1">
          <mxCell style="text;html=1;strokeColor=none;fillColor=none;align=center;verticalAlign=middle;whiteSpace=wrap;overflow=hidden;" vertex="1" parent="1">
            <mxGeometry x="-394" y="180" width="40" height="40" as="geometry" />
          </mxCell>
        </UserObject>
        <UserObject label="$$\mathcal{P}^{d}$$" placeholders="1" name="Variable" id="3ZK03s1uTfJQS2Cd98UN-2">
          <mxCell style="text;html=1;strokeColor=none;fillColor=none;align=center;verticalAlign=middle;whiteSpace=wrap;overflow=hidden;" vertex="1" parent="1">
            <mxGeometry x="-270" y="180" width="40" height="40" as="geometry" />
          </mxCell>
        </UserObject>
        <mxCell id="3ZK03s1uTfJQS2Cd98UN-5" value="" style="rounded=0;whiteSpace=wrap;html=1;" vertex="1" parent="1">
          <mxGeometry x="-545" y="575.75" width="160" height="160" as="geometry" />
        </mxCell>
        <mxCell id="3ZK03s1uTfJQS2Cd98UN-7" value="" style="endArrow=none;html=1;rounded=0;exitX=0.058;exitY=0.995;exitDx=0;exitDy=0;exitPerimeter=0;" edge="1" parent="1">
          <mxGeometry width="50" height="50" relative="1" as="geometry">
            <mxPoint x="-465.4199999999998" y="735.75" as="sourcePoint" />
            <mxPoint x="-464.7" y="576.55" as="targetPoint" />
          </mxGeometry>
        </mxCell>
        <mxCell id="3ZK03s1uTfJQS2Cd98UN-8" value="" style="endArrow=none;html=1;rounded=0;exitX=0.058;exitY=0.995;exitDx=0;exitDy=0;exitPerimeter=0;" edge="1" parent="1">
          <mxGeometry width="50" height="50" relative="1" as="geometry">
            <mxPoint x="-525.5" y="735.75" as="sourcePoint" />
            <mxPoint x="-524.5" y="576.75" as="targetPoint" />
          </mxGeometry>
        </mxCell>
        <mxCell id="3ZK03s1uTfJQS2Cd98UN-9" value="" style="endArrow=none;html=1;rounded=0;exitX=0.058;exitY=0.995;exitDx=0;exitDy=0;exitPerimeter=0;" edge="1" parent="1">
          <mxGeometry width="50" height="50" relative="1" as="geometry">
            <mxPoint x="-444.5" y="735.75" as="sourcePoint" />
            <mxPoint x="-443.5" y="576.75" as="targetPoint" />
          </mxGeometry>
        </mxCell>
        <mxCell id="3ZK03s1uTfJQS2Cd98UN-10" value="" style="endArrow=none;html=1;rounded=0;exitX=0.058;exitY=0.995;exitDx=0;exitDy=0;exitPerimeter=0;" edge="1" parent="1">
          <mxGeometry width="50" height="50" relative="1" as="geometry">
            <mxPoint x="-505" y="735.75" as="sourcePoint" />
            <mxPoint x="-504" y="576.75" as="targetPoint" />
          </mxGeometry>
        </mxCell>
        <mxCell id="3ZK03s1uTfJQS2Cd98UN-11" value="" style="endArrow=none;html=1;rounded=0;exitX=0.75;exitY=1;exitDx=0;exitDy=0;" edge="1" parent="1" source="3ZK03s1uTfJQS2Cd98UN-5">
          <mxGeometry width="50" height="50" relative="1" as="geometry">
            <mxPoint x="-429" y="735.75" as="sourcePoint" />
            <mxPoint x="-425" y="575.75" as="targetPoint" />
          </mxGeometry>
        </mxCell>
        <mxCell id="3ZK03s1uTfJQS2Cd98UN-12" value="" style="endArrow=none;html=1;rounded=0;exitX=0.058;exitY=0.995;exitDx=0;exitDy=0;exitPerimeter=0;" edge="1" parent="1">
          <mxGeometry width="50" height="50" relative="1" as="geometry">
            <mxPoint x="-486" y="735.75" as="sourcePoint" />
            <mxPoint x="-485" y="576.75" as="targetPoint" />
          </mxGeometry>
        </mxCell>
        <mxCell id="3ZK03s1uTfJQS2Cd98UN-13" value="" style="endArrow=none;html=1;rounded=0;exitX=0.75;exitY=1;exitDx=0;exitDy=0;" edge="1" parent="1">
          <mxGeometry width="50" height="50" relative="1" as="geometry">
            <mxPoint x="-405" y="735.75" as="sourcePoint" />
            <mxPoint x="-405" y="575.75" as="targetPoint" />
          </mxGeometry>
        </mxCell>
        <mxCell id="3ZK03s1uTfJQS2Cd98UN-21" value="" style="endArrow=none;html=1;rounded=0;" edge="1" parent="1">
          <mxGeometry width="50" height="50" relative="1" as="geometry">
            <mxPoint x="-385" y="595.75" as="sourcePoint" />
            <mxPoint x="-545" y="595.75" as="targetPoint" />
          </mxGeometry>
        </mxCell>
        <mxCell id="3ZK03s1uTfJQS2Cd98UN-22" value="" style="endArrow=none;html=1;rounded=0;" edge="1" parent="1">
          <mxGeometry width="50" height="50" relative="1" as="geometry">
            <mxPoint x="-385" y="615.75" as="sourcePoint" />
            <mxPoint x="-545" y="615.75" as="targetPoint" />
          </mxGeometry>
        </mxCell>
        <mxCell id="3ZK03s1uTfJQS2Cd98UN-23" value="" style="endArrow=none;html=1;rounded=0;" edge="1" parent="1">
          <mxGeometry width="50" height="50" relative="1" as="geometry">
            <mxPoint x="-385" y="635.75" as="sourcePoint" />
            <mxPoint x="-545" y="635.75" as="targetPoint" />
          </mxGeometry>
        </mxCell>
        <mxCell id="3ZK03s1uTfJQS2Cd98UN-24" value="" style="endArrow=none;html=1;rounded=0;" edge="1" parent="1">
          <mxGeometry width="50" height="50" relative="1" as="geometry">
            <mxPoint x="-385" y="655.75" as="sourcePoint" />
            <mxPoint x="-545" y="655.58" as="targetPoint" />
          </mxGeometry>
        </mxCell>
        <mxCell id="3ZK03s1uTfJQS2Cd98UN-25" value="" style="endArrow=none;html=1;rounded=0;" edge="1" parent="1">
          <mxGeometry width="50" height="50" relative="1" as="geometry">
            <mxPoint x="-385" y="675.75" as="sourcePoint" />
            <mxPoint x="-545" y="675.75" as="targetPoint" />
          </mxGeometry>
        </mxCell>
        <mxCell id="3ZK03s1uTfJQS2Cd98UN-26" value="" style="endArrow=none;html=1;rounded=0;" edge="1" parent="1">
          <mxGeometry width="50" height="50" relative="1" as="geometry">
            <mxPoint x="-385" y="695.75" as="sourcePoint" />
            <mxPoint x="-545" y="695.75" as="targetPoint" />
          </mxGeometry>
        </mxCell>
        <mxCell id="3ZK03s1uTfJQS2Cd98UN-27" value="" style="endArrow=none;html=1;rounded=0;" edge="1" parent="1">
          <mxGeometry width="50" height="50" relative="1" as="geometry">
            <mxPoint x="-385" y="715.75" as="sourcePoint" />
            <mxPoint x="-545" y="715.75" as="targetPoint" />
          </mxGeometry>
        </mxCell>
        <mxCell id="3ZK03s1uTfJQS2Cd98UN-28" value="" style="endArrow=classic;html=1;rounded=0;" edge="1" parent="1">
          <mxGeometry width="50" height="50" relative="1" as="geometry">
            <mxPoint x="-520" y="552.75" as="sourcePoint" />
            <mxPoint x="-490" y="552.75" as="targetPoint" />
          </mxGeometry>
        </mxCell>
        <mxCell id="3ZK03s1uTfJQS2Cd98UN-29" value="" style="endArrow=classic;html=1;rounded=0;" edge="1" parent="1">
          <mxGeometry width="50" height="50" relative="1" as="geometry">
            <mxPoint x="-564.57" y="575.75" as="sourcePoint" />
            <mxPoint x="-564.57" y="605.75" as="targetPoint" />
          </mxGeometry>
        </mxCell>
        <UserObject label="$$i$$" placeholders="1" name="Variable" id="3ZK03s1uTfJQS2Cd98UN-30">
          <mxCell style="text;html=1;strokeColor=none;fillColor=none;align=center;verticalAlign=middle;whiteSpace=wrap;overflow=hidden;rotation=0;" vertex="1" parent="1">
            <mxGeometry x="-579" y="546.75" width="30" height="30" as="geometry" />
          </mxCell>
        </UserObject>
        <UserObject label="$$j$$" placeholders="1" name="Variable" id="3ZK03s1uTfJQS2Cd98UN-31">
          <mxCell style="text;html=1;strokeColor=none;fillColor=none;align=center;verticalAlign=middle;whiteSpace=wrap;overflow=hidden;rotation=0;" vertex="1" parent="1">
            <mxGeometry x="-541" y="528.75" width="30" height="30" as="geometry" />
          </mxCell>
        </UserObject>
        <UserObject label="$$1$$" placeholders="1" name="Variable" id="3ZK03s1uTfJQS2Cd98UN-35">
          <mxCell style="text;html=1;strokeColor=none;fillColor=none;align=center;verticalAlign=middle;whiteSpace=wrap;overflow=hidden;rotation=0;" vertex="1" parent="1">
            <mxGeometry x="-570" y="564.75" width="30" height="30" as="geometry" />
          </mxCell>
        </UserObject>
        <UserObject label="$$2$$" placeholders="1" name="Variable" id="3ZK03s1uTfJQS2Cd98UN-36">
          <mxCell style="text;html=1;strokeColor=none;fillColor=none;align=center;verticalAlign=middle;whiteSpace=wrap;overflow=hidden;rotation=0;" vertex="1" parent="1">
            <mxGeometry x="-570" y="585.75" width="30" height="30" as="geometry" />
          </mxCell>
        </UserObject>
        <UserObject label="$$n$$" placeholders="1" name="Variable" id="3ZK03s1uTfJQS2Cd98UN-37">
          <mxCell style="text;html=1;strokeColor=none;fillColor=none;align=center;verticalAlign=middle;whiteSpace=wrap;overflow=hidden;rotation=0;" vertex="1" parent="1">
            <mxGeometry x="-570" y="702.75" width="30" height="30" as="geometry" />
          </mxCell>
        </UserObject>
        <UserObject label="$$1$$" placeholders="1" name="Variable" id="3ZK03s1uTfJQS2Cd98UN-38">
          <mxCell style="text;html=1;strokeColor=none;fillColor=none;align=center;verticalAlign=middle;whiteSpace=wrap;overflow=hidden;rotation=0;" vertex="1" parent="1">
            <mxGeometry x="-547" y="545.75" width="30" height="30" as="geometry" />
          </mxCell>
        </UserObject>
        <UserObject label="$$2$$" placeholders="1" name="Variable" id="3ZK03s1uTfJQS2Cd98UN-39">
          <mxCell style="text;html=1;strokeColor=none;fillColor=none;align=center;verticalAlign=middle;whiteSpace=wrap;overflow=hidden;rotation=0;" vertex="1" parent="1">
            <mxGeometry x="-528" y="545.75" width="30" height="30" as="geometry" />
          </mxCell>
        </UserObject>
        <mxCell id="3ZK03s1uTfJQS2Cd98UN-44" value="" style="rounded=0;whiteSpace=wrap;html=1;" vertex="1" parent="1">
          <mxGeometry x="-360" y="575.75" width="160" height="160" as="geometry" />
        </mxCell>
        <mxCell id="3ZK03s1uTfJQS2Cd98UN-45" value="" style="endArrow=none;html=1;rounded=0;exitX=0.058;exitY=0.995;exitDx=0;exitDy=0;exitPerimeter=0;" edge="1" parent="1">
          <mxGeometry width="50" height="50" relative="1" as="geometry">
            <mxPoint x="-280.4199999999998" y="735.75" as="sourcePoint" />
            <mxPoint x="-279.7" y="576.55" as="targetPoint" />
          </mxGeometry>
        </mxCell>
        <mxCell id="3ZK03s1uTfJQS2Cd98UN-46" value="" style="endArrow=none;html=1;rounded=0;exitX=0.058;exitY=0.995;exitDx=0;exitDy=0;exitPerimeter=0;" edge="1" parent="1">
          <mxGeometry width="50" height="50" relative="1" as="geometry">
            <mxPoint x="-340.5" y="735.75" as="sourcePoint" />
            <mxPoint x="-339.5" y="576.75" as="targetPoint" />
          </mxGeometry>
        </mxCell>
        <mxCell id="3ZK03s1uTfJQS2Cd98UN-47" value="" style="endArrow=none;html=1;rounded=0;exitX=0.058;exitY=0.995;exitDx=0;exitDy=0;exitPerimeter=0;" edge="1" parent="1">
          <mxGeometry width="50" height="50" relative="1" as="geometry">
            <mxPoint x="-259.5" y="735.75" as="sourcePoint" />
            <mxPoint x="-258.5" y="576.75" as="targetPoint" />
          </mxGeometry>
        </mxCell>
        <mxCell id="3ZK03s1uTfJQS2Cd98UN-48" value="" style="endArrow=none;html=1;rounded=0;exitX=0.058;exitY=0.995;exitDx=0;exitDy=0;exitPerimeter=0;" edge="1" parent="1">
          <mxGeometry width="50" height="50" relative="1" as="geometry">
            <mxPoint x="-320" y="735.75" as="sourcePoint" />
            <mxPoint x="-319" y="576.75" as="targetPoint" />
          </mxGeometry>
        </mxCell>
        <mxCell id="3ZK03s1uTfJQS2Cd98UN-49" value="" style="endArrow=none;html=1;rounded=0;exitX=0.75;exitY=1;exitDx=0;exitDy=0;" edge="1" parent="1" source="3ZK03s1uTfJQS2Cd98UN-44">
          <mxGeometry width="50" height="50" relative="1" as="geometry">
            <mxPoint x="-244" y="735.75" as="sourcePoint" />
            <mxPoint x="-240" y="575.75" as="targetPoint" />
          </mxGeometry>
        </mxCell>
        <mxCell id="3ZK03s1uTfJQS2Cd98UN-50" value="" style="endArrow=none;html=1;rounded=0;exitX=0.058;exitY=0.995;exitDx=0;exitDy=0;exitPerimeter=0;" edge="1" parent="1">
          <mxGeometry width="50" height="50" relative="1" as="geometry">
            <mxPoint x="-301" y="735.75" as="sourcePoint" />
            <mxPoint x="-300" y="576.75" as="targetPoint" />
          </mxGeometry>
        </mxCell>
        <mxCell id="3ZK03s1uTfJQS2Cd98UN-51" value="" style="endArrow=none;html=1;rounded=0;exitX=0.75;exitY=1;exitDx=0;exitDy=0;" edge="1" parent="1">
          <mxGeometry width="50" height="50" relative="1" as="geometry">
            <mxPoint x="-220" y="735.75" as="sourcePoint" />
            <mxPoint x="-220" y="575.75" as="targetPoint" />
          </mxGeometry>
        </mxCell>
        <mxCell id="3ZK03s1uTfJQS2Cd98UN-52" value="" style="endArrow=none;html=1;rounded=0;" edge="1" parent="1">
          <mxGeometry width="50" height="50" relative="1" as="geometry">
            <mxPoint x="-200" y="595.75" as="sourcePoint" />
            <mxPoint x="-360" y="595.75" as="targetPoint" />
          </mxGeometry>
        </mxCell>
        <mxCell id="3ZK03s1uTfJQS2Cd98UN-53" value="" style="endArrow=none;html=1;rounded=0;" edge="1" parent="1">
          <mxGeometry width="50" height="50" relative="1" as="geometry">
            <mxPoint x="-200" y="615.75" as="sourcePoint" />
            <mxPoint x="-360" y="615.75" as="targetPoint" />
          </mxGeometry>
        </mxCell>
        <mxCell id="3ZK03s1uTfJQS2Cd98UN-54" value="" style="endArrow=none;html=1;rounded=0;" edge="1" parent="1">
          <mxGeometry width="50" height="50" relative="1" as="geometry">
            <mxPoint x="-200" y="635.75" as="sourcePoint" />
            <mxPoint x="-360" y="635.75" as="targetPoint" />
          </mxGeometry>
        </mxCell>
        <mxCell id="3ZK03s1uTfJQS2Cd98UN-55" value="" style="endArrow=none;html=1;rounded=0;" edge="1" parent="1">
          <mxGeometry width="50" height="50" relative="1" as="geometry">
            <mxPoint x="-200" y="655.75" as="sourcePoint" />
            <mxPoint x="-360" y="655.58" as="targetPoint" />
          </mxGeometry>
        </mxCell>
        <mxCell id="3ZK03s1uTfJQS2Cd98UN-56" value="" style="endArrow=none;html=1;rounded=0;" edge="1" parent="1">
          <mxGeometry width="50" height="50" relative="1" as="geometry">
            <mxPoint x="-200" y="675.75" as="sourcePoint" />
            <mxPoint x="-360" y="675.75" as="targetPoint" />
          </mxGeometry>
        </mxCell>
        <mxCell id="3ZK03s1uTfJQS2Cd98UN-57" value="" style="endArrow=none;html=1;rounded=0;" edge="1" parent="1">
          <mxGeometry width="50" height="50" relative="1" as="geometry">
            <mxPoint x="-200" y="695.75" as="sourcePoint" />
            <mxPoint x="-360" y="695.75" as="targetPoint" />
          </mxGeometry>
        </mxCell>
        <mxCell id="3ZK03s1uTfJQS2Cd98UN-58" value="" style="endArrow=none;html=1;rounded=0;" edge="1" parent="1">
          <mxGeometry width="50" height="50" relative="1" as="geometry">
            <mxPoint x="-200" y="715.75" as="sourcePoint" />
            <mxPoint x="-360" y="715.75" as="targetPoint" />
          </mxGeometry>
        </mxCell>
        <UserObject label="$$1$$" placeholders="1" name="Variable" id="3ZK03s1uTfJQS2Cd98UN-63">
          <mxCell style="text;html=1;strokeColor=none;fillColor=none;align=center;verticalAlign=middle;whiteSpace=wrap;overflow=hidden;rotation=0;" vertex="1" parent="1">
            <mxGeometry x="-385" y="564.75" width="30" height="30" as="geometry" />
          </mxCell>
        </UserObject>
        <UserObject label="$$2$$" placeholders="1" name="Variable" id="3ZK03s1uTfJQS2Cd98UN-64">
          <mxCell style="text;html=1;strokeColor=none;fillColor=none;align=center;verticalAlign=middle;whiteSpace=wrap;overflow=hidden;rotation=0;" vertex="1" parent="1">
            <mxGeometry x="-385" y="585.75" width="30" height="30" as="geometry" />
          </mxCell>
        </UserObject>
        <UserObject label="$$n$$" placeholders="1" name="Variable" id="3ZK03s1uTfJQS2Cd98UN-65">
          <mxCell style="text;html=1;strokeColor=none;fillColor=none;align=center;verticalAlign=middle;whiteSpace=wrap;overflow=hidden;rotation=0;" vertex="1" parent="1">
            <mxGeometry x="-385" y="702.75" width="30" height="30" as="geometry" />
          </mxCell>
        </UserObject>
        <UserObject label="$$1$$" placeholders="1" name="Variable" id="3ZK03s1uTfJQS2Cd98UN-66">
          <mxCell style="text;html=1;strokeColor=none;fillColor=none;align=center;verticalAlign=middle;whiteSpace=wrap;overflow=hidden;rotation=0;" vertex="1" parent="1">
            <mxGeometry x="-362" y="545.75" width="30" height="30" as="geometry" />
          </mxCell>
        </UserObject>
        <UserObject label="$$2$$" placeholders="1" name="Variable" id="3ZK03s1uTfJQS2Cd98UN-67">
          <mxCell style="text;html=1;strokeColor=none;fillColor=none;align=center;verticalAlign=middle;whiteSpace=wrap;overflow=hidden;rotation=0;" vertex="1" parent="1">
            <mxGeometry x="-343" y="545.75" width="30" height="30" as="geometry" />
          </mxCell>
        </UserObject>
        <UserObject label="$$n$$" placeholders="1" name="Variable" id="3ZK03s1uTfJQS2Cd98UN-68">
          <mxCell style="text;html=1;strokeColor=none;fillColor=none;align=center;verticalAlign=middle;whiteSpace=wrap;overflow=hidden;rotation=0;" vertex="1" parent="1">
            <mxGeometry x="-225" y="544.75" width="30" height="30" as="geometry" />
          </mxCell>
        </UserObject>
        <mxCell id="3ZK03s1uTfJQS2Cd98UN-69" value="" style="endArrow=none;dashed=1;html=1;dashPattern=1 3;strokeWidth=3;rounded=0;" edge="1" parent="1">
          <mxGeometry width="50" height="50" relative="1" as="geometry">
            <mxPoint x="-455" y="564.75" as="sourcePoint" />
            <mxPoint x="-425" y="564.75" as="targetPoint" />
          </mxGeometry>
        </mxCell>
        <UserObject label="$$n$$" placeholders="1" name="Variable" id="3ZK03s1uTfJQS2Cd98UN-70">
          <mxCell style="text;html=1;strokeColor=none;fillColor=none;align=center;verticalAlign=middle;whiteSpace=wrap;overflow=hidden;rotation=0;" vertex="1" parent="1">
            <mxGeometry x="-409" y="545.75" width="30" height="30" as="geometry" />
          </mxCell>
        </UserObject>
        <UserObject label="$$3$$" placeholders="1" name="Variable" id="3ZK03s1uTfJQS2Cd98UN-71">
          <mxCell style="text;html=1;strokeColor=none;fillColor=none;align=center;verticalAlign=middle;whiteSpace=wrap;overflow=hidden;rotation=0;" vertex="1" parent="1">
            <mxGeometry x="-509" y="545.75" width="30" height="30" as="geometry" />
          </mxCell>
        </UserObject>
        <UserObject label="$$3$$" placeholders="1" name="Variable" id="3ZK03s1uTfJQS2Cd98UN-72">
          <mxCell style="text;html=1;strokeColor=none;fillColor=none;align=center;verticalAlign=middle;whiteSpace=wrap;overflow=hidden;rotation=0;" vertex="1" parent="1">
            <mxGeometry x="-570" y="605.75" width="30" height="30" as="geometry" />
          </mxCell>
        </UserObject>
        <UserObject label="$$3$$" placeholders="1" name="Variable" id="3ZK03s1uTfJQS2Cd98UN-73">
          <mxCell style="text;html=1;strokeColor=none;fillColor=none;align=center;verticalAlign=middle;whiteSpace=wrap;overflow=hidden;rotation=0;" vertex="1" parent="1">
            <mxGeometry x="-385" y="605.75" width="30" height="30" as="geometry" />
          </mxCell>
        </UserObject>
        <UserObject label="$$3$$" placeholders="1" name="Variable" id="3ZK03s1uTfJQS2Cd98UN-74">
          <mxCell style="text;html=1;strokeColor=none;fillColor=none;align=center;verticalAlign=middle;whiteSpace=wrap;overflow=hidden;rotation=0;" vertex="1" parent="1">
            <mxGeometry x="-325" y="545.75" width="30" height="30" as="geometry" />
          </mxCell>
        </UserObject>
        <mxCell id="3ZK03s1uTfJQS2Cd98UN-75" value="" style="endArrow=none;dashed=1;html=1;dashPattern=1 3;strokeWidth=3;rounded=0;" edge="1" parent="1">
          <mxGeometry width="50" height="50" relative="1" as="geometry">
            <mxPoint x="-270" y="564.75" as="sourcePoint" />
            <mxPoint x="-240" y="564.75" as="targetPoint" />
          </mxGeometry>
        </mxCell>
        <mxCell id="3ZK03s1uTfJQS2Cd98UN-76" value="" style="endArrow=none;dashed=1;html=1;dashPattern=1 3;strokeWidth=3;rounded=0;" edge="1" parent="1">
          <mxGeometry width="50" height="50" relative="1" as="geometry">
            <mxPoint x="-555.2" y="665.75" as="sourcePoint" />
            <mxPoint x="-555.2" y="695.75" as="targetPoint" />
          </mxGeometry>
        </mxCell>
        <mxCell id="3ZK03s1uTfJQS2Cd98UN-77" value="" style="endArrow=none;dashed=1;html=1;dashPattern=1 3;strokeWidth=3;rounded=0;" edge="1" parent="1">
          <mxGeometry width="50" height="50" relative="1" as="geometry">
            <mxPoint x="-370.2" y="665.75" as="sourcePoint" />
            <mxPoint x="-370.2" y="695.75" as="targetPoint" />
          </mxGeometry>
        </mxCell>
        <UserObject label="$$n~\text{qubitss&lt;br&gt;}$$ 2nd level of parallelism" placeholders="1" name="Variable" id="3ZK03s1uTfJQS2Cd98UN-78">
          <mxCell style="text;html=1;strokeColor=none;fillColor=none;align=center;verticalAlign=middle;whiteSpace=wrap;overflow=hidden;rotation=-90;" vertex="1" parent="1">
            <mxGeometry x="-715" y="625.75" width="140" height="60" as="geometry" />
          </mxCell>
        </UserObject>
        <UserObject label="$$XZ~\text{Tableau}$$" placeholders="1" name="Variable" id="3ZK03s1uTfJQS2Cd98UN-79">
          <mxCell style="text;html=1;strokeColor=none;fillColor=none;align=center;verticalAlign=middle;whiteSpace=wrap;overflow=hidden;rotation=0;" vertex="1" parent="1">
            <mxGeometry x="-415" y="448.75" width="210" height="70" as="geometry" />
          </mxCell>
        </UserObject>
        <mxCell id="3ZK03s1uTfJQS2Cd98UN-80" value="" style="shape=flexArrow;endArrow=classic;html=1;rounded=0;entryX=0.25;entryY=0;entryDx=0;entryDy=0;" edge="1" parent="1">
          <mxGeometry width="50" height="50" relative="1" as="geometry">
            <mxPoint x="-369.79" y="458.75" as="sourcePoint" />
            <mxPoint x="-370.29" y="519.75" as="targetPoint" />
          </mxGeometry>
        </mxCell>
        <UserObject label="$$X^{n\times n&lt;br&gt;}~\text{matrix} $$" placeholders="1" name="Variable" id="3ZK03s1uTfJQS2Cd98UN-81">
          <mxCell style="text;html=1;strokeColor=none;fillColor=none;align=center;verticalAlign=middle;whiteSpace=wrap;overflow=hidden;rotation=0;" vertex="1" parent="1">
            <mxGeometry x="-635" y="718.75" width="270" height="70" as="geometry" />
          </mxCell>
        </UserObject>
        <UserObject label="$$Z^{n\times n&lt;br&gt;}~\text{matrix} $$" placeholders="1" name="Variable" id="3ZK03s1uTfJQS2Cd98UN-82">
          <mxCell style="text;html=1;strokeColor=none;fillColor=none;align=center;verticalAlign=middle;whiteSpace=wrap;overflow=hidden;rotation=0;" vertex="1" parent="1">
            <mxGeometry x="-435" y="718.75" width="270" height="70" as="geometry" />
          </mxCell>
        </UserObject>
        <mxCell id="3ZK03s1uTfJQS2Cd98UN-83" value="" style="shape=curlyBracket;whiteSpace=wrap;html=1;rounded=1;labelPosition=left;verticalLabelPosition=middle;align=right;verticalAlign=middle;rotation=90;" vertex="1" parent="1">
          <mxGeometry x="-379" y="360" width="20" height="347.75" as="geometry" />
        </mxCell>
        <mxCell id="3ZK03s1uTfJQS2Cd98UN-84" value="" style="rounded=0;whiteSpace=wrap;html=1;strokeWidth=2;" vertex="1" parent="1">
          <mxGeometry x="-186" y="597.75" width="330" height="91.25" as="geometry" />
        </mxCell>
        <UserObject label="$$\textbf{foreach}~~ i \in X^{n\times n} \cup Z^{n\times n}&lt;br&gt;&amp;nbsp;~~\textbf{do in parallel} $$" placeholders="1" name="Variable" id="3ZK03s1uTfJQS2Cd98UN-88">
          <mxCell style="text;html=1;strokeColor=none;fillColor=none;align=center;verticalAlign=middle;whiteSpace=wrap;overflow=hidden;rotation=0;" vertex="1" parent="1">
            <mxGeometry x="-176" y="623.75" width="270" height="30" as="geometry" />
          </mxCell>
        </UserObject>
        <UserObject label="$$\textbf{Procedure }\textcolor{purple}{\textbf{updateTableau}}(C^p)\textbf{:} $$" placeholders="1" name="Variable" id="3ZK03s1uTfJQS2Cd98UN-89">
          <mxCell style="text;html=1;strokeColor=none;fillColor=none;align=center;verticalAlign=middle;whiteSpace=wrap;overflow=hidden;rotation=0;" vertex="1" parent="1">
            <mxGeometry x="-174" y="599.75" width="220" height="29" as="geometry" />
          </mxCell>
        </UserObject>
        <UserObject label="$$\textcolor{green}{\textbf{applyOperator}}(C^p, i) $$" placeholders="1" name="Variable" id="3ZK03s1uTfJQS2Cd98UN-91">
          <mxCell style="text;html=1;strokeColor=none;fillColor=none;align=center;verticalAlign=middle;whiteSpace=wrap;overflow=hidden;rotation=0;" vertex="1" parent="1">
            <mxGeometry x="-156" y="648.38" width="160" height="32.75" as="geometry" />
          </mxCell>
        </UserObject>
        <UserObject label="$$\textbf{Procedure }\textcolor{purple}{\textbf{parallelSimulation}}(\mathcal{P}^d, \ket{x_n})\textbf{:} $$" placeholders="1" name="Variable" id="3ZK03s1uTfJQS2Cd98UN-92">
          <mxCell style="text;html=1;strokeColor=none;fillColor=none;align=center;verticalAlign=middle;whiteSpace=wrap;overflow=hidden;rotation=0;" vertex="1" parent="1">
            <mxGeometry x="-186" y="277" width="299" height="35" as="geometry" />
          </mxCell>
        </UserObject>
      </root>
    </mxGraphModel>
  </diagram>
</mxfile>
